<svg xmlns="http://www.w3.org/2000/svg" xmlns:xlink="http://www.w3.org/1999/xlink" width="1024" zoomAndPan="magnify" viewBox="0 0 768 767.999994" height="1024" preserveAspectRatio="xMidYMid meet" version="1.0"><defs><g/></defs><path fill="#000000" d="M -0.0117188 758.902344 L -0.0117188 9.113281 C -0.0117188 4.089844 4.042969 0.015625 9.097656 0.015625 L 758.886719 0.015625 C 763.9375 0.015625 767.992188 4.089844 767.992188 9.113281 L 767.992188 758.902344 C 767.992188 763.921875 763.9375 767.996094 758.886719 767.996094 L 9.097656 767.996094 C 4.042969 767.996094 -0.0117188 763.921875 -0.0117188 758.902344 Z M 374.886719 18.207031 C 374.886719 18.207031 74.65625 18.207031 18.203125 18.207031 C 18.203125 69.636719 18.203125 323.480469 18.203125 374.910156 L 374.886719 374.910156 Z M 749.78125 374.910156 L 749.78125 18.207031 C 749.78125 18.207031 393.097656 18.207031 393.097656 18.207031 L 393.097656 374.910156 Z M 393.097656 749.804688 L 749.78125 749.804688 L 749.78125 393.101562 L 393.097656 393.101562 Z M 18.203125 393.101562 C 18.203125 444.53125 18.203125 698.375 18.203125 749.804688 C 69.605469 749.804688 323.484375 749.804688 374.886719 749.804688 L 374.886719 393.101562 Z M 196.542969 63.953125 C 269.714844 63.953125 329.160156 123.371094 329.160156 196.558594 C 329.160156 269.746094 269.714844 329.164062 196.542969 329.164062 C 123.375 329.164062 63.929688 269.746094 63.929688 196.558594 C 63.929688 123.371094 123.375 63.953125 196.542969 63.953125 Z M 196.542969 82.144531 C 133.417969 82.144531 82.140625 133.414062 82.140625 196.558594 C 82.140625 259.703125 133.417969 310.972656 196.542969 310.972656 C 259.671875 310.972656 310.945312 259.703125 310.945312 196.558594 C 310.945312 133.414062 259.671875 82.144531 196.542969 82.144531 Z M 150.011719 246.148438 C 150.011719 241.128906 154.128906 237.054688 159.117188 237.054688 C 164.109375 237.054688 168.222656 241.128906 168.222656 246.148438 C 168.222656 250.199219 170.035156 253.878906 172.902344 256.917969 C 178.269531 262.492188 186.875 265.90625 196.542969 265.90625 C 206.214844 265.90625 214.820312 262.492188 220.1875 256.917969 C 223.054688 253.878906 224.863281 250.199219 224.863281 246.148438 C 224.863281 241.128906 228.980469 237.054688 233.972656 237.054688 C 238.960938 237.054688 243.078125 241.128906 243.078125 246.148438 C 243.078125 266.378906 222.804688 284.09375 196.542969 284.09375 C 170.285156 284.09375 150.011719 266.378906 150.011719 246.148438 Z M 128.300781 167.085938 C 128.300781 172.105469 124.183594 176.179688 119.195312 176.179688 C 114.203125 176.179688 110.089844 172.105469 110.089844 167.085938 C 110.089844 145.964844 126.367188 129.140625 146.019531 129.140625 C 165.667969 129.140625 181.949219 145.964844 181.949219 167.085938 C 181.949219 172.105469 177.832031 176.179688 172.839844 176.179688 C 167.851562 176.179688 163.734375 172.105469 163.734375 167.085938 C 163.734375 156.355469 156 147.332031 146.019531 147.332031 C 136.039062 147.332031 128.300781 156.355469 128.300781 167.085938 Z M 229.355469 167.085938 C 229.355469 172.105469 225.238281 176.179688 220.25 176.179688 C 215.257812 176.179688 211.140625 172.105469 211.140625 167.085938 C 211.140625 145.964844 227.421875 129.140625 247.070312 129.140625 C 266.71875 129.140625 283 145.964844 283 167.085938 C 283 172.105469 278.882812 176.179688 273.894531 176.179688 C 268.902344 176.179688 264.785156 172.105469 264.785156 167.085938 C 264.785156 156.355469 257.050781 147.332031 247.070312 147.332031 C 237.089844 147.332031 229.355469 156.355469 229.355469 167.085938 Z M 571.4375 63.953125 C 644.609375 63.953125 704.054688 123.371094 704.054688 196.558594 C 704.054688 269.746094 644.609375 329.164062 571.4375 329.164062 C 498.269531 329.164062 438.824219 269.746094 438.824219 196.558594 C 438.824219 123.371094 498.269531 63.953125 571.4375 63.953125 Z M 571.4375 82.144531 C 508.3125 82.144531 457.035156 133.414062 457.035156 196.558594 C 457.035156 259.703125 508.3125 310.972656 571.4375 310.972656 C 634.566406 310.972656 685.839844 259.703125 685.839844 196.558594 C 685.839844 133.414062 634.566406 82.144531 571.4375 82.144531 Z M 528.710938 269.671875 C 523.71875 269.671875 519.601562 265.59375 519.601562 260.570312 C 519.601562 255.558594 523.71875 251.476562 528.710938 251.476562 L 614.167969 251.476562 C 619.160156 251.476562 623.277344 255.558594 623.277344 260.570312 C 623.277344 265.59375 619.160156 269.671875 614.167969 269.671875 Z M 519.664062 135.378906 C 529.707031 135.378906 537.816406 143.507812 537.816406 153.519531 C 537.816406 163.53125 529.707031 171.65625 519.664062 171.65625 C 509.621094 171.65625 501.511719 163.53125 501.511719 153.519531 C 501.511719 143.507812 509.621094 135.378906 519.664062 135.378906 Z M 519.664062 153.566406 C 519.664062 153.566406 519.726562 153.550781 519.726562 153.519531 C 519.726562 153.488281 519.664062 153.46875 519.664062 153.46875 C 519.664062 153.46875 519.601562 153.488281 519.601562 153.519531 C 519.601562 153.550781 519.664062 153.566406 519.664062 153.566406 Z M 623.214844 135.378906 C 633.257812 135.378906 641.363281 143.507812 641.363281 153.519531 C 641.363281 163.53125 633.257812 171.65625 623.214844 171.65625 C 613.171875 171.65625 605.0625 163.53125 605.0625 153.519531 C 605.0625 143.507812 613.171875 135.378906 623.214844 135.378906 Z M 623.214844 153.566406 C 623.214844 153.566406 623.277344 153.550781 623.277344 153.519531 C 623.277344 153.488281 623.214844 153.46875 623.214844 153.46875 C 623.214844 153.46875 623.152344 153.488281 623.152344 153.519531 C 623.152344 153.550781 623.214844 153.566406 623.214844 153.566406 Z M 196.542969 438.851562 C 269.714844 438.851562 329.160156 498.265625 329.160156 571.453125 C 329.160156 644.644531 269.714844 704.058594 196.542969 704.058594 C 123.375 704.058594 63.929688 644.644531 63.929688 571.453125 C 63.929688 498.265625 123.375 438.851562 196.542969 438.851562 Z M 196.542969 457.039062 C 133.417969 457.039062 82.140625 508.308594 82.140625 571.453125 C 82.140625 634.601562 133.417969 685.867188 196.542969 685.867188 C 259.671875 685.867188 310.945312 634.601562 310.945312 571.453125 C 310.945312 508.308594 259.671875 457.039062 196.542969 457.039062 Z M 248.320312 519.007812 C 258.359375 519.007812 266.46875 527.132812 266.46875 537.144531 C 266.46875 547.15625 258.359375 555.285156 248.320312 555.285156 C 238.277344 555.285156 230.167969 547.15625 230.167969 537.144531 C 230.167969 527.132812 238.277344 519.007812 248.320312 519.007812 Z M 248.320312 537.195312 C 248.320312 537.195312 248.378906 537.175781 248.378906 537.144531 C 248.378906 537.113281 248.320312 537.097656 248.320312 537.097656 C 248.320312 537.097656 248.257812 537.113281 248.257812 537.144531 C 248.257812 537.175781 248.320312 537.195312 248.320312 537.195312 Z M 139.84375 644.226562 C 135.601562 641.503906 134.414062 635.871094 137.097656 631.648438 C 139.84375 627.425781 145.457031 626.203125 149.699219 628.921875 C 164.417969 638.40625 177.019531 630.507812 189.371094 624.800781 C 207.773438 616.308594 225.613281 610.265625 245.699219 630.109375 C 249.253906 633.640625 249.253906 639.410156 245.761719 642.972656 C 242.207031 646.539062 236.464844 646.570312 232.847656 643.035156 C 220.125 630.433594 208.707031 635.929688 196.980469 641.324219 C 179.265625 649.503906 160.988281 657.824219 139.84375 644.226562 Z M 144.769531 519.007812 C 154.8125 519.007812 162.921875 527.132812 162.921875 537.144531 C 162.921875 547.15625 154.8125 555.285156 144.769531 555.285156 C 134.726562 555.285156 126.617188 547.15625 126.617188 537.144531 C 126.617188 527.132812 134.726562 519.007812 144.769531 519.007812 Z M 144.769531 537.195312 C 144.769531 537.195312 144.832031 537.175781 144.832031 537.144531 C 144.832031 537.113281 144.769531 537.097656 144.769531 537.097656 C 144.769531 537.097656 144.707031 537.113281 144.707031 537.144531 C 144.707031 537.175781 144.769531 537.195312 144.769531 537.195312 Z M 571.4375 438.851562 C 644.609375 438.851562 704.054688 498.265625 704.054688 571.453125 C 704.054688 644.644531 644.609375 704.058594 571.4375 704.058594 C 498.269531 704.058594 438.824219 644.644531 438.824219 571.453125 C 438.824219 498.265625 498.269531 438.851562 571.4375 438.851562 Z M 571.4375 457.039062 C 508.3125 457.039062 457.035156 508.308594 457.035156 571.453125 C 457.035156 634.601562 508.3125 685.867188 571.4375 685.867188 C 634.566406 685.867188 685.839844 634.601562 685.839844 571.453125 C 685.839844 508.308594 634.566406 457.039062 571.4375 457.039062 Z M 623.214844 519.007812 C 633.257812 519.007812 641.363281 527.132812 641.363281 537.144531 C 641.363281 547.15625 633.257812 555.285156 623.214844 555.285156 C 613.171875 555.285156 605.0625 547.15625 605.0625 537.144531 C 605.0625 527.132812 613.171875 519.007812 623.214844 519.007812 Z M 623.214844 537.195312 C 623.214844 537.195312 623.277344 537.175781 623.277344 537.144531 C 623.277344 537.113281 623.214844 537.097656 623.214844 537.097656 C 623.214844 537.097656 623.152344 537.113281 623.152344 537.144531 C 623.152344 537.175781 623.214844 537.195312 623.214844 537.195312 Z M 534.511719 633.140625 C 530.644531 636.328125 524.90625 635.773438 521.660156 631.890625 C 518.480469 628.019531 519.042969 622.28125 522.910156 619.085938 C 538.941406 605.898438 554.972656 599.636719 571.003906 599.675781 C 586.972656 599.707031 603.191406 605.988281 619.78125 618.941406 C 623.710938 622.03125 624.398438 627.75 621.34375 631.710938 C 618.222656 635.667969 612.546875 636.371094 608.554688 633.285156 C 595.703125 623.242188 583.292969 617.894531 570.941406 617.863281 C 558.714844 617.839844 546.738281 623.078125 534.511719 633.140625 Z M 519.664062 519.007812 C 529.707031 519.007812 537.816406 527.132812 537.816406 537.144531 C 537.816406 547.15625 529.707031 555.285156 519.664062 555.285156 C 509.621094 555.285156 501.511719 547.15625 501.511719 537.144531 C 501.511719 527.132812 509.621094 519.007812 519.664062 519.007812 Z M 519.664062 537.195312 C 519.664062 537.195312 519.726562 537.175781 519.726562 537.144531 C 519.726562 537.113281 519.664062 537.097656 519.664062 537.097656 C 519.664062 537.097656 519.601562 537.113281 519.601562 537.144531 C 519.601562 537.175781 519.664062 537.195312 519.664062 537.195312 Z M 519.664062 537.195312 " fill-opacity="1" fill-rule="evenodd"/><g fill="#000000" fill-opacity="1"><g transform="translate(373.790025, 368.150011)"><g><path d="M 10.1875 0.328125 C 8.914062 0.328125 7.789062 0.0664062 6.8125 -0.453125 C 5.832031 -0.972656 5.082031 -1.6875 4.5625 -2.59375 C 4.050781 -3.507812 3.796875 -4.546875 3.796875 -5.703125 C 3.796875 -6.859375 4.050781 -7.894531 4.5625 -8.8125 C 5.082031 -9.726562 5.832031 -10.453125 6.8125 -10.984375 C 7.789062 -11.515625 8.914062 -11.78125 10.1875 -11.78125 C 11.488281 -11.78125 12.625 -11.519531 13.59375 -11 C 14.570312 -10.476562 15.320312 -9.757812 15.84375 -8.84375 C 16.363281 -7.9375 16.625 -6.90625 16.625 -5.75 C 16.625 -3.988281 16.035156 -2.535156 14.859375 -1.390625 C 13.691406 -0.242188 12.132812 0.328125 10.1875 0.328125 Z M 10.1875 0.328125 "/></g></g></g></svg>